# xmcd
# 
# Track frame offsets:
#     225
#     35820
#     54382
#     65726
#     80052
#     102971
#     116493
#     142904
# 
# Disc length: 2546
# 
# Revision: 1
# Processed by: cddbd v1.5.2PL0 Copyright (c) Steve Scherf et al.
# Submitted via: fre:ac v1.0.31
# 
DISCID=7009ef08
DTITLE=Bad Penny - Live In Berlin  CD 2
DYEAR=2013
DGENRE=Folk/ Celtic - Blues
TTITLE0=Loch Lomond
TTITLE1=Whistles The Wind
TTITLE2=The Little Beggarman
TTITLE3=Wee Wee Boy
TTITLE4=Raggle Taggle Gypsy
TTITLE5=Dixieland
TTITLE6=Don`t Cry Little Honey
TTITLE7=Like A Hurricane
EXTD=YEAR: 2013
EXTT0=
EXTT1=
EXTT2=
EXTT3=
EXTT4=
EXTT5=
EXTT6=
EXTT7=
PLAYORDER=
